<svg version="1.1" xmlns="http://www.w3.org/2000/svg" xmlns:xlink="http://www.w3.org/1999/xlink" width="3100" height="2340"><defs/><g><g transform="translate(-150,-6) scale(1,1)"><rect fill="#C0C0C0" stroke="none" x="415" y="23" width="2624" height="2064" opacity="0.2"/></g><g transform="translate(-150,-6) scale(1,1)"><rect fill="#ffffff" stroke="none" x="408" y="16" width="2624" height="2064"/></g><g transform="translate(-150,-6) scale(1,1)"><path fill="none" stroke="#000000" d="M 408 16 L 3032 16 L 3032 2080 L 408 2080 L 408 16 Z Z" stroke-miterlimit="10"/></g><g transform="translate(-150,-6) scale(1,1)"><g><path fill="none" stroke="none"/><text fill="#000000" stroke="none" font-family="Arial" font-size="30px" font-style="normal" font-weight="bold" text-decoration="none" x="1690.8203125" y="52.5">FLib</text></g></g><g transform="translate(-150,-6) scale(1,1)"><path fill="#ffffff" stroke="none" d="M 1910.4625454545455 2183.2799999999997 C 1910.4625454545455 2170.975094656 1920.1051912238545 2161 1932 2161 C 1943.8948087761455 2161 1953.5374545454545 2170.975094656 1953.5374545454545 2183.2799999999997 C 1953.5374545454545 2195.5849053439997 1943.8948087761455 2205.56 1932 2205.56 C 1920.1051912238545 2205.56 1910.4625454545455 2195.5849053439997 1910.4625454545455 2183.2799999999997 Z"/></g><g transform="translate(-150,-6) scale(1,1)"><path fill="none" stroke="#000000" d="M 1910.4625454545455 2183.2799999999997 C 1910.4625454545455 2170.975094656 1920.1051912238545 2161 1932 2161 C 1943.8948087761455 2161 1953.5374545454545 2170.975094656 1953.5374545454545 2183.2799999999997 C 1953.5374545454545 2195.5849053439997 1943.8948087761455 2205.56 1932 2205.56 C 1920.1051912238545 2205.56 1910.4625454545455 2195.5849053439997 1910.4625454545455 2183.2799999999997 Z" stroke-miterlimit="10"/></g><g transform="translate(-150,-6) scale(1,1)"><path fill="none" stroke="#000000" d="M 1932 2205.56 L 1932 2248.44" stroke-miterlimit="10"/></g><g transform="translate(-150,-6) scale(1,1)"><path fill="none" stroke="#000000" d="M 1909.1956363636364 2221.64 L 1954.8043636363636 2221.64" stroke-miterlimit="10"/></g><g transform="translate(-150,-6) scale(1,1)"><path fill="none" stroke="#000000" d="M 1932 2248.44 L 1900.3272727272729 2293" stroke-miterlimit="10"/></g><g transform="translate(-150,-6) scale(1,1)"><path fill="none" stroke="#000000" d="M 1932 2248.44 L 1963.6727272727271 2293" stroke-miterlimit="10"/></g><g transform="translate(-150,-6) scale(1,1)"><g><path fill="none" stroke="none"/><text fill="#000000" stroke="none" font-family="Arial" font-size="30px" font-style="normal" font-weight="bold" text-decoration="none" x="1891.98046875" y="2330.5">Guest</text></g></g><g transform="translate(-150,-6) scale(1,1)"><path fill="#ffffff" stroke="none" d="M 227.2709073153409 421.75 C 227.2709073153409 410.2900904 236.2659126971591 401 247.36181640625 401 C 258.4577201153409 401 267.45272549715907 410.2900904 267.45272549715907 421.75 C 267.45272549715907 433.2099096 258.4577201153409 442.5 247.36181640625 442.5 C 236.2659126971591 442.5 227.2709073153409 433.2099096 227.2709073153409 421.75 Z"/></g><g transform="translate(-150,-6) scale(1,1)"><path fill="none" stroke="#000000" d="M 227.2709073153409 421.75 C 227.2709073153409 410.2900904 236.2659126971591 401 247.36181640625 401 C 258.4577201153409 401 267.45272549715907 410.2900904 267.45272549715907 421.75 C 267.45272549715907 433.2099096 258.4577201153409 442.5 247.36181640625 442.5 C 236.2659126971591 442.5 227.2709073153409 433.2099096 227.2709073153409 421.75 Z" stroke-miterlimit="10"/></g><g transform="translate(-150,-6) scale(1,1)"><path fill="none" stroke="#000000" d="M 247.36181640625 442.5 L 247.36181640625 482.5" stroke-miterlimit="10"/></g><g transform="translate(-150,-6) scale(1,1)"><path fill="none" stroke="#000000" d="M 226.08908913352275 457.5 L 268.63454367897725 457.5" stroke-miterlimit="10"/></g><g transform="translate(-150,-6) scale(1,1)"><path fill="none" stroke="#000000" d="M 247.36181640625 482.5 L 217.81636186079547 524" stroke-miterlimit="10"/></g><g transform="translate(-150,-6) scale(1,1)"><path fill="none" stroke="#000000" d="M 247.36181640625 482.5 L 276.9072709517045 524" stroke-miterlimit="10"/></g><g transform="translate(-150,-6) scale(1,1)"><g><path fill="none" stroke="none"/><text fill="#000000" stroke="none" font-family="Arial" font-size="30px" font-style="normal" font-weight="bold" text-decoration="none" x="180.66015625" y="561.5">Employee</text></g></g><g transform="translate(-150,-6) scale(1,1)"><path fill="#C0C0C0" stroke="none" d="M 1031 1975 C 1031 1957.3268864 1062.340064 1943 1101 1943 C 1139.659936 1943 1171 1957.3268864 1171 1975 C 1171 1992.6731136 1139.659936 2007 1101 2007 C 1062.340064 2007 1031 1992.6731136 1031 1975 Z" opacity="0.2"/></g><g transform="translate(-150,-6) scale(1,1)"><path fill="#ffffff" stroke="none" d="M 1024 1968 C 1024 1950.3268864 1055.340064 1936 1094 1936 C 1132.659936 1936 1164 1950.3268864 1164 1968 C 1164 1985.6731136 1132.659936 2000 1094 2000 C 1055.340064 2000 1024 1985.6731136 1024 1968 Z"/></g><g transform="translate(-150,-6) scale(1,1)"><path fill="none" stroke="#000000" d="M 1024 1968 C 1024 1950.3268864 1055.340064 1936 1094 1936 C 1132.659936 1936 1164 1950.3268864 1164 1968 C 1164 1985.6731136 1132.659936 2000 1094 2000 C 1055.340064 2000 1024 1985.6731136 1024 1968 Z" stroke-miterlimit="10"/></g><g transform="translate(-150,-6) scale(1,1)"><g><path fill="none" stroke="none"/><text fill="#000000" stroke="none" font-family="Arial" font-size="30px" font-style="normal" font-weight="bold" text-decoration="none" x="1053.130859375" y="1983.5">Log in</text></g></g><g transform="translate(-150,-6) scale(1,1)"><path fill="#C0C0C0" stroke="none" d="M 1031 1583 C 1031 1560.908608 1090.7699792 1543 1164.5 1543 C 1238.2300208 1543 1298 1560.908608 1298 1583 C 1298 1605.091392 1238.2300208 1623 1164.5 1623 C 1090.7699792 1623 1031 1605.091392 1031 1583 Z" opacity="0.2"/></g><g transform="translate(-150,-6) scale(1,1)"><path fill="#ffffff" stroke="none" d="M 1024 1576 C 1024 1553.908608 1083.7699792 1536 1157.5 1536 C 1231.2300208 1536 1291 1553.908608 1291 1576 C 1291 1598.091392 1231.2300208 1616 1157.5 1616 C 1083.7699792 1616 1024 1598.091392 1024 1576 Z"/></g><g transform="translate(-150,-6) scale(1,1)"><path fill="none" stroke="#000000" d="M 1024 1576 C 1024 1553.908608 1083.7699792 1536 1157.5 1536 C 1231.2300208 1536 1291 1553.908608 1291 1576 C 1291 1598.091392 1231.2300208 1616 1157.5 1616 C 1083.7699792 1616 1024 1598.091392 1024 1576 Z" stroke-miterlimit="10"/></g><g transform="translate(-150,-6) scale(1,1)"><g><path fill="none" stroke="none"/><text fill="#000000" stroke="none" font-family="Arial" font-size="30px" font-style="normal" font-weight="bold" text-decoration="none" x="1073.27880859375" y="1591.5">Search book</text></g></g><g transform="translate(-150,-6) scale(1,1)"><path fill="#C0C0C0" stroke="none" d="M 655 1188 C 655 1167.5654624 689.9217856 1151 733 1151 C 776.0782144 1151 811 1167.5654624 811 1188 C 811 1208.4345376 776.0782144 1225 733 1225 C 689.9217856 1225 655 1208.4345376 655 1188 Z" opacity="0.2"/></g><g transform="translate(-150,-6) scale(1,1)"><path fill="#ffffff" stroke="none" d="M 648 1181 C 648 1160.5654624 682.9217856 1144 726 1144 C 769.0782144 1144 804 1160.5654624 804 1181 C 804 1201.4345376 769.0782144 1218 726 1218 C 682.9217856 1218 648 1201.4345376 648 1181 Z"/></g><g transform="translate(-150,-6) scale(1,1)"><path fill="none" stroke="#000000" d="M 648 1181 C 648 1160.5654624 682.9217856 1144 726 1144 C 769.0782144 1144 804 1160.5654624 804 1181 C 804 1201.4345376 769.0782144 1218 726 1218 C 682.9217856 1218 648 1201.4345376 648 1181 Z" stroke-miterlimit="10"/></g><g transform="translate(-150,-6) scale(1,1)"><g><path fill="none" stroke="none"/><text fill="#000000" stroke="none" font-family="Arial" font-size="30px" font-style="normal" font-weight="bold" text-decoration="none" x="680.12109375" y="1196.5">Logout</text></g></g><g transform="translate(-150,-6) scale(1,1)"><path fill="#C0C0C0" stroke="none" d="M 1551 479 C 1551 452.4903296 1635.6181728 431 1740 431 C 1844.3818272 431 1929 452.4903296 1929 479 C 1929 505.5096704 1844.3818272 527 1740 527 C 1635.6181728 527 1551 505.5096704 1551 479 Z" opacity="0.2"/></g><g transform="translate(-150,-6) scale(1,1)"><path fill="#ffffff" stroke="none" d="M 1544 472 C 1544 445.4903296 1628.6181728 424 1733 424 C 1837.3818272 424 1922 445.4903296 1922 472 C 1922 498.5096704 1837.3818272 520 1733 520 C 1628.6181728 520 1544 498.5096704 1544 472 Z"/></g><g transform="translate(-150,-6) scale(1,1)"><path fill="none" stroke="#000000" d="M 1544 472 C 1544 445.4903296 1628.6181728 424 1733 424 C 1837.3818272 424 1922 445.4903296 1922 472 C 1922 498.5096704 1837.3818272 520 1733 520 C 1628.6181728 520 1544 498.5096704 1544 472 Z" stroke-miterlimit="10"/></g><g transform="translate(-150,-6) scale(1,1)"><g><path fill="none" stroke="none"/><text fill="#000000" stroke="none" font-family="Arial" font-size="30px" font-style="normal" font-weight="bold" text-decoration="none" x="1613.76171875" y="487.5">Acquire new book</text></g></g><g transform="translate(-150,-6) scale(1,1)"><path fill="#C0C0C0" stroke="none" d="M 1527 1480 C 1527 1457.3563232 1592.1425616 1439 1672.5 1439 C 1752.8574384 1439 1818 1457.3563232 1818 1480 C 1818 1502.6436768 1752.8574384 1521 1672.5 1521 C 1592.1425616 1521 1527 1502.6436768 1527 1480 Z" opacity="0.2"/></g><g transform="translate(-150,-6) scale(1,1)"><path fill="#ffffff" stroke="none" d="M 1520 1473 C 1520 1450.3563232 1585.1425616 1432 1665.5 1432 C 1745.8574384 1432 1811 1450.3563232 1811 1473 C 1811 1495.6436768 1745.8574384 1514 1665.5 1514 C 1585.1425616 1514 1520 1495.6436768 1520 1473 Z"/></g><g transform="translate(-150,-6) scale(1,1)"><path fill="none" stroke="#000000" d="M 1520 1473 C 1520 1450.3563232 1585.1425616 1432 1665.5 1432 C 1745.8574384 1432 1811 1450.3563232 1811 1473 C 1811 1495.6436768 1745.8574384 1514 1665.5 1514 C 1585.1425616 1514 1520 1495.6436768 1520 1473 Z" stroke-miterlimit="10"/></g><g transform="translate(-150,-6) scale(1,1)"><g><path fill="none" stroke="none"/><text fill="#000000" stroke="none" font-family="Arial" font-size="30px" font-style="normal" font-weight="bold" text-decoration="none" x="1572.951171875" y="1488.5">Reserve book</text></g></g><g transform="translate(-150,-6) scale(1,1)"><path fill="#C0C0C0" stroke="none" d="M 1711 303 C 1711 280.908608 1780.8435712 263 1867 263 C 1953.1564288 263 2023 280.908608 2023 303 C 2023 325.091392 1953.1564288 343 1867 343 C 1780.8435712 343 1711 325.091392 1711 303 Z" opacity="0.2"/></g><g transform="translate(-150,-6) scale(1,1)"><path fill="#ffffff" stroke="none" d="M 1704 296 C 1704 273.908608 1773.8435712 256 1860 256 C 1946.1564288 256 2016 273.908608 2016 296 C 2016 318.091392 1946.1564288 336 1860 336 C 1773.8435712 336 1704 318.091392 1704 296 Z"/></g><g transform="translate(-150,-6) scale(1,1)"><path fill="none" stroke="#000000" d="M 1704 296 C 1704 273.908608 1773.8435712 256 1860 256 C 1946.1564288 256 2016 273.908608 2016 296 C 2016 318.091392 1946.1564288 336 1860 336 C 1773.8435712 336 1704 318.091392 1704 296 Z" stroke-miterlimit="10"/></g><g transform="translate(-150,-6) scale(1,1)"><g><path fill="none" stroke="none"/><text fill="#000000" stroke="none" font-family="Arial" font-size="30px" font-style="normal" font-weight="bold" text-decoration="none" x="1759.921875" y="311.5">Send feedback</text></g></g><g transform="translate(-150,-6) scale(1,1)"><path fill="#C0C0C0" stroke="none" d="M 895 115 C 895 90.6994688 945.8156752 71 1008.5 71 C 1071.1843248 71 1122 90.6994688 1122 115 C 1122 139.3005312 1071.1843248 159 1008.5 159 C 945.8156752 159 895 139.3005312 895 115 Z" opacity="0.2"/></g><g transform="translate(-150,-6) scale(1,1)"><path fill="#ffffff" stroke="none" d="M 888 108 C 888 83.6994688 938.8156752 64 1001.5 64 C 1064.1843248 64 1115 83.6994688 1115 108 C 1115 132.3005312 1064.1843248 152 1001.5 152 C 938.8156752 152 888 132.3005312 888 108 Z"/></g><g transform="translate(-150,-6) scale(1,1)"><path fill="none" stroke="#000000" d="M 888 108 C 888 83.6994688 938.8156752 64 1001.5 64 C 1064.1843248 64 1115 83.6994688 1115 108 C 1115 132.3005312 1064.1843248 152 1001.5 152 C 938.8156752 152 888 132.3005312 888 108 Z" stroke-miterlimit="10"/></g><g transform="translate(-150,-6) scale(1,1)"><g><path fill="none" stroke="none"/><text fill="#000000" stroke="none" font-family="Arial" font-size="30px" font-style="normal" font-weight="bold" text-decoration="none" x="931.4365234375" y="123.5">Lend book</text></g></g><g transform="translate(-150,-6) scale(1,1)"><path fill="#C0C0C0" stroke="none" d="M 447 111 C 447 84.4903296 532.065888 63 637 63 C 741.934112 63 827 84.4903296 827 111 C 827 137.5096704 741.934112 159 637 159 C 532.065888 159 447 137.5096704 447 111 Z" opacity="0.2"/></g><g transform="translate(-150,-6) scale(1,1)"><path fill="#ffffff" stroke="none" d="M 440 104 C 440 77.4903296 525.065888 56 630 56 C 734.934112 56 820 77.4903296 820 104 C 820 130.5096704 734.934112 152 630 152 C 525.065888 152 440 130.5096704 440 104 Z"/></g><g transform="translate(-150,-6) scale(1,1)"><path fill="none" stroke="#000000" d="M 440 104 C 440 77.4903296 525.065888 56 630 56 C 734.934112 56 820 77.4903296 820 104 C 820 130.5096704 734.934112 152 630 152 C 525.065888 152 440 130.5096704 440 104 Z" stroke-miterlimit="10"/></g><g transform="translate(-150,-6) scale(1,1)"><g><path fill="none" stroke="none"/><text fill="#000000" stroke="none" font-family="Arial" font-size="30px" font-style="normal" font-weight="bold" text-decoration="none" x="509.091796875" y="119.5">Get returned book</text></g></g><g transform="translate(-150,-6) scale(1,1)"><path fill="#C0C0C0" stroke="none" d="M 1543 1787 C 1543 1767.1177472 1627.6181728 1751 1732 1751 C 1836.3818272 1751 1921 1767.1177472 1921 1787 C 1921 1806.8822528 1836.3818272 1823 1732 1823 C 1627.6181728 1823 1543 1806.8822528 1543 1787 Z" opacity="0.2"/></g><g transform="translate(-150,-6) scale(1,1)"><path fill="#ffffff" stroke="none" d="M 1536 1780 C 1536 1760.1177472 1620.6181728 1744 1725 1744 C 1829.3818272 1744 1914 1760.1177472 1914 1780 C 1914 1799.8822528 1829.3818272 1816 1725 1816 C 1620.6181728 1816 1536 1799.8822528 1536 1780 Z"/></g><g transform="translate(-150,-6) scale(1,1)"><path fill="none" stroke="#000000" d="M 1536 1780 C 1536 1760.1177472 1620.6181728 1744 1725 1744 C 1829.3818272 1744 1914 1760.1177472 1914 1780 C 1914 1799.8822528 1829.3818272 1816 1725 1816 C 1620.6181728 1816 1536 1799.8822528 1536 1780 Z" stroke-miterlimit="10"/></g><g transform="translate(-150,-6) scale(1,1)"><g><path fill="none" stroke="none"/><text fill="#000000" stroke="none" font-family="Arial" font-size="30px" font-style="normal" font-weight="bold" text-decoration="none" x="1605.673828125" y="1795.5">View book's detail</text></g></g><g transform="translate(-150,-6) scale(1,1)"><path fill="none" stroke="#000000" d="M 1847 2220 L 1165 1992" stroke-miterlimit="10"/></g><g transform="translate(-150,-6) scale(1,1)"><path fill="none" stroke="#000000" d="M 305 568 L 700 1143" stroke-miterlimit="10"/></g><g transform="translate(-150,-6) scale(1,1)"><path fill="#ffffff" stroke="none" d="M 3161.034181818182 492.56 C 3161.034181818182 481.757309312 3169.525466898618 473 3180 473 C 3190.474533101382 473 3198.965818181818 481.757309312 3198.965818181818 492.56 C 3198.965818181818 503.362690688 3190.474533101382 512.12 3180 512.12 C 3169.525466898618 512.12 3161.034181818182 503.362690688 3161.034181818182 492.56 Z"/></g><g transform="translate(-150,-6) scale(1,1)"><path fill="none" stroke="#000000" d="M 3161.034181818182 492.56 C 3161.034181818182 481.757309312 3169.525466898618 473 3180 473 C 3190.474533101382 473 3198.965818181818 481.757309312 3198.965818181818 492.56 C 3198.965818181818 503.362690688 3190.474533101382 512.12 3180 512.12 C 3169.525466898618 512.12 3161.034181818182 503.362690688 3161.034181818182 492.56 Z" stroke-miterlimit="10"/></g><g transform="translate(-150,-6) scale(1,1)"><path fill="none" stroke="#000000" d="M 3180 512.12 L 3180 549.88" stroke-miterlimit="10"/></g><g transform="translate(-150,-6) scale(1,1)"><path fill="none" stroke="#000000" d="M 3159.9185454545454 526.28 L 3200.0814545454546 526.28" stroke-miterlimit="10"/></g><g transform="translate(-150,-6) scale(1,1)"><path fill="none" stroke="#000000" d="M 3180 549.88 L 3152.109090909091 589" stroke-miterlimit="10"/></g><g transform="translate(-150,-6) scale(1,1)"><path fill="none" stroke="#000000" d="M 3180 549.88 L 3207.890909090909 589" stroke-miterlimit="10"/></g><g transform="translate(-150,-6) scale(1,1)"><g><path fill="none" stroke="none"/><text fill="#000000" stroke="none" font-family="Arial" font-size="30px" font-style="normal" font-weight="bold" text-decoration="none" x="3130.80322265625" y="626.5">Reader</text></g></g><g transform="translate(-150,-6) scale(1,1)"><path fill="none" stroke="#000000" d="M 3119 568 L 805 1161" stroke-miterlimit="10"/></g><g transform="translate(-150,-6) scale(1,1)"><path fill="none" stroke="#000000" d="M 3119 603 L 1769 1743" stroke-miterlimit="10"/></g><g transform="translate(-150,-6) scale(1,1)"><path fill="none" stroke="#000000" d="M 3119 540 L 2017 326" stroke-miterlimit="10"/></g><g transform="translate(-150,-6) scale(1,1)"><path fill="none" stroke="#000000" d="M 3119 549 L 1923 483" stroke-miterlimit="10"/></g><g transform="translate(-150,-6) scale(1,1)"><path fill="none" stroke="#000000" d="M 3119 583 L 1238 1535" stroke-miterlimit="10"/></g><g transform="translate(-150,-6) scale(1,1)"><path fill="none" stroke="#000000" d="M 1847 2174 L 1204 1617" stroke-miterlimit="10"/></g><g transform="translate(-150,-6) scale(1,1)"><path fill="none" stroke="#000000" d="M 1893 2159 L 1741 1817" stroke-miterlimit="10"/></g><g transform="translate(-150,-6) scale(1,1)"><path fill="none" stroke="#000000" d="M 1673 1515 L 1718 1743" stroke-miterlimit="10" stroke-dasharray="3"/></g><g transform="translate(-150,-6) scale(1,1)"><path fill="none" stroke="#000000" d="M 1711.9023219131425 1733.8447653252874 L 1718 1743 L 1720.162018997134 1732.214561953447" stroke-miterlimit="10"/></g><g transform="translate(-150,-6) scale(1,1)"><g><path fill="none" stroke="none"/><text fill="#000000" stroke="none" font-family="Arial" font-size="30px" font-style="normal" font-weight="normal" text-decoration="none" x="1605.5" y="1649.5">«extend»</text></g></g><g transform="translate(-150,-6) scale(1,1)"><path fill="none" stroke="#000000" d="M 3119 589 L 1734 1431" stroke-miterlimit="10"/></g><g transform="translate(-150,-6) scale(1,1)"><path fill="#C0C0C0" stroke="none" d="M 2479 135 C 2479 104.0720512 2561.827312 79 2664 79 C 2766.172688 79 2849 104.0720512 2849 135 C 2849 165.9279488 2766.172688 191 2664 191 C 2561.827312 191 2479 165.9279488 2479 135 Z" opacity="0.2"/></g><g transform="translate(-150,-6) scale(1,1)"><path fill="#ffffff" stroke="none" d="M 2472 128 C 2472 97.0720512 2554.827312 72 2657 72 C 2759.172688 72 2842 97.0720512 2842 128 C 2842 158.9279488 2759.172688 184 2657 184 C 2554.827312 184 2472 158.9279488 2472 128 Z"/></g><g transform="translate(-150,-6) scale(1,1)"><path fill="none" stroke="#000000" d="M 2472 128 C 2472 97.0720512 2554.827312 72 2657 72 C 2759.172688 72 2842 97.0720512 2842 128 C 2842 158.9279488 2759.172688 184 2657 184 C 2554.827312 184 2472 158.9279488 2472 128 Z" stroke-miterlimit="10"/></g><g transform="translate(-150,-6) scale(1,1)"><g><path fill="none" stroke="none"/><text fill="#000000" stroke="none" font-family="Arial" font-size="30px" font-style="normal" font-weight="bold" text-decoration="none" x="2539.73193359375" y="143.5">View reserved list</text></g></g><g transform="translate(-150,-6) scale(1,1)"><path fill="#C0C0C0" stroke="none" d="M 1847 163 C 1847 134.2811904 1942.8110528 111 2061 111 C 2179.1889472 111 2275 134.2811904 2275 163 C 2275 191.7188096 2179.1889472 215 2061 215 C 1942.8110528 215 1847 191.7188096 1847 163 Z" opacity="0.2"/></g><g transform="translate(-150,-6) scale(1,1)"><path fill="#ffffff" stroke="none" d="M 1840 156 C 1840 127.2811904 1935.8110528 104 2054 104 C 2172.1889472 104 2268 127.2811904 2268 156 C 2268 184.7188096 2172.1889472 208 2054 208 C 1935.8110528 208 1840 184.7188096 1840 156 Z"/></g><g transform="translate(-150,-6) scale(1,1)"><path fill="none" stroke="#000000" d="M 1840 156 C 1840 127.2811904 1935.8110528 104 2054 104 C 2172.1889472 104 2268 127.2811904 2268 156 C 2268 184.7188096 2172.1889472 208 2054 208 C 1935.8110528 208 1840 184.7188096 1840 156 Z" stroke-miterlimit="10"/></g><g transform="translate(-150,-6) scale(1,1)"><g><path fill="none" stroke="none"/><text fill="#000000" stroke="none" font-family="Arial" font-size="30px" font-style="normal" font-weight="bold" text-decoration="none" x="1916.42919921875" y="171.5">Cancel a reservation</text></g></g><g transform="translate(-150,-6) scale(1,1)"><path fill="none" stroke="#000000" d="M 3119 531 L 2205 209" stroke-miterlimit="10"/></g><g transform="translate(-150,-6) scale(1,1)"><path fill="none" stroke="#000000" d="M 3119 503 L 2727 185" stroke-miterlimit="10"/></g><g transform="translate(-150,-6) scale(1,1)"><path fill="#C0C0C0" stroke="none" d="M 1143 426.5 C 1143 402.4756112 1211.0527104 383 1295 383 C 1378.9472896 383 1447 402.4756112 1447 426.5 C 1447 450.5243888 1378.9472896 470 1295 470 C 1211.0527104 470 1143 450.5243888 1143 426.5 Z" opacity="0.2"/></g><g transform="translate(-150,-6) scale(1,1)"><path fill="#ffffff" stroke="none" d="M 1136 419.5 C 1136 395.4756112 1204.0527104 376 1288 376 C 1371.9472896 376 1440 395.4756112 1440 419.5 C 1440 443.5243888 1371.9472896 463 1288 463 C 1204.0527104 463 1136 443.5243888 1136 419.5 Z"/></g><g transform="translate(-150,-6) scale(1,1)"><path fill="none" stroke="#000000" d="M 1136 419.5 C 1136 395.4756112 1204.0527104 376 1288 376 C 1371.9472896 376 1440 395.4756112 1440 419.5 C 1440 443.5243888 1371.9472896 463 1288 463 C 1204.0527104 463 1136 443.5243888 1136 419.5 Z" stroke-miterlimit="10"/></g><g transform="translate(-150,-6) scale(1,1)"><g><path fill="none" stroke="none"/><text fill="#000000" stroke="none" font-family="Arial" font-size="30px" font-style="normal" font-weight="bold" text-decoration="none" x="1190.71240234375" y="435">View feedback</text></g></g><g transform="translate(-150,-6) scale(1,1)"><path fill="none" stroke="#000000" d="M 1135 428 L 336 478" stroke-miterlimit="10"/></g><g transform="translate(-150,-6) scale(1,1)"><path fill="none" stroke="#000000" d="M 332 399 L 580 153" stroke-miterlimit="10"/></g><g transform="translate(-150,-6) scale(1,1)"><path fill="none" stroke="#000000" d="M 336 439 L 911 153" stroke-miterlimit="10"/></g><g transform="translate(-150,-6) scale(1,1)"><path fill="#C0C0C0" stroke="none" d="M 1143 290.5 C 1143 266.4756112 1236.5724768 247 1352 247 C 1467.4275232 247 1561 266.4756112 1561 290.5 C 1561 314.5243888 1467.4275232 334 1352 334 C 1236.5724768 334 1143 314.5243888 1143 290.5 Z" opacity="0.2"/></g><g transform="translate(-150,-6) scale(1,1)"><path fill="#ffffff" stroke="none" d="M 1136 283.5 C 1136 259.4756112 1229.5724768 240 1345 240 C 1460.4275232 240 1554 259.4756112 1554 283.5 C 1554 307.5243888 1460.4275232 327 1345 327 C 1229.5724768 327 1136 307.5243888 1136 283.5 Z"/></g><g transform="translate(-150,-6) scale(1,1)"><path fill="none" stroke="#000000" d="M 1136 283.5 C 1136 259.4756112 1229.5724768 240 1345 240 C 1460.4275232 240 1554 259.4756112 1554 283.5 C 1554 307.5243888 1460.4275232 327 1345 327 C 1229.5724768 327 1136 307.5243888 1136 283.5 Z" stroke-miterlimit="10"/></g><g transform="translate(-150,-6) scale(1,1)"><g><path fill="none" stroke="none"/><text fill="#000000" stroke="none" font-family="Arial" font-size="30px" font-style="normal" font-weight="bold" text-decoration="none" x="1214.09423828125" y="299">Fine for losing book</text></g></g><g transform="translate(-150,-6) scale(1,1)"><path fill="#C0C0C0" stroke="none" d="M 1159 151 C 1159 128.90860800000002 1281.6739648 111 1433 111 C 1584.3260352 111 1707 128.90860800000002 1707 151 C 1707 173.09139199999998 1584.3260352 191 1433 191 C 1281.6739648 191 1159 173.09139199999998 1159 151 Z" opacity="0.2"/></g><g transform="translate(-150,-6) scale(1,1)"><path fill="#ffffff" stroke="none" d="M 1152 144 C 1152 121.908608 1274.6739648 104 1426 104 C 1577.3260352 104 1700 121.908608 1700 144 C 1700 166.09139199999998 1577.3260352 184 1426 184 C 1274.6739648 184 1152 166.09139199999998 1152 144 Z"/></g><g transform="translate(-150,-6) scale(1,1)"><path fill="none" stroke="#000000" d="M 1152 144 C 1152 121.908608 1274.6739648 104 1426 104 C 1577.3260352 104 1700 121.908608 1700 144 C 1700 166.09139199999998 1577.3260352 184 1426 184 C 1274.6739648 184 1152 166.09139199999998 1152 144 Z" stroke-miterlimit="10"/></g><g transform="translate(-150,-6) scale(1,1)"><g><path fill="none" stroke="none"/><text fill="#000000" stroke="none" font-family="Arial" font-size="30px" font-style="normal" font-weight="bold" text-decoration="none" x="1251.7421875" y="159.5">Extend the borrowing time</text></g></g><g transform="translate(-150,-6) scale(1,1)"><path fill="none" stroke="#000000" d="M 336 467 L 1135 321" stroke-miterlimit="10"/></g><g transform="translate(-150,-6) scale(1,1)"><path fill="none" stroke="#000000" d="M 336 457 L 1283 185" stroke-miterlimit="10"/></g><g transform="translate(-150,-6) scale(1,1)"><path fill="none" stroke="#000000" d="M 1622 1743 L 1271 1617" stroke-miterlimit="10" stroke-dasharray="3"/></g><g transform="translate(-150,-6) scale(1,1)"><path fill="none" stroke="#000000" d="M 1281.9873030961196 1616.4716339583179 L 1271 1617 L 1279.1428077372402 1624.3955853151958" stroke-miterlimit="10"/></g><g transform="translate(-150,-6) scale(1,1)"><g><path fill="none" stroke="none"/><text fill="#000000" stroke="none" font-family="Arial" font-size="30px" font-style="normal" font-weight="normal" text-decoration="none" x="1372.5" y="1711.5">«extend»</text></g></g><g transform="translate(-150,-6) scale(1,1)"><path fill="#C0C0C0" stroke="none" d="M 2567 1779 C 2567 1750.2811904 2645.1263024 1727 2741.5 1727 C 2837.8736976 1727 2916 1750.2811904 2916 1779 C 2916 1807.7188096 2837.8736976 1831 2741.5 1831 C 2645.1263024 1831 2567 1807.7188096 2567 1779 Z" opacity="0.2"/></g><g transform="translate(-150,-6) scale(1,1)"><path fill="#ffffff" stroke="none" d="M 2560 1772 C 2560 1743.2811904 2638.1263024 1720 2734.5 1720 C 2830.8736976 1720 2909 1743.2811904 2909 1772 C 2909 1800.7188096 2830.8736976 1824 2734.5 1824 C 2638.1263024 1824 2560 1800.7188096 2560 1772 Z"/></g><g transform="translate(-150,-6) scale(1,1)"><path fill="none" stroke="#000000" d="M 2560 1772 C 2560 1743.2811904 2638.1263024 1720 2734.5 1720 C 2830.8736976 1720 2909 1743.2811904 2909 1772 C 2909 1800.7188096 2830.8736976 1824 2734.5 1824 C 2638.1263024 1824 2560 1800.7188096 2560 1772 Z" stroke-miterlimit="10"/></g><g transform="translate(-150,-6) scale(1,1)"><g><path fill="none" stroke="none"/><text fill="#000000" stroke="none" font-family="Arial" font-size="30px" font-style="normal" font-weight="bold" text-decoration="none" x="2624.7099609375" y="1787.5">View regulations</text></g></g><g transform="translate(-150,-6) scale(1,1)"><path fill="#C0C0C0" stroke="none" d="M 2775 1970.5 C 2775 1937.6390544 2827.1588208 1911 2891.5 1911 C 2955.8411792 1911 3008 1937.6390544 3008 1970.5 C 3008 2003.3609456 2955.8411792 2030 2891.5 2030 C 2827.1588208 2030 2775 2003.3609456 2775 1970.5 Z" opacity="0.2"/></g><g transform="translate(-150,-6) scale(1,1)"><path fill="#ffffff" stroke="none" d="M 2768 1963.5 C 2768 1930.6390544 2820.1588208 1904 2884.5 1904 C 2948.8411792 1904 3001 1930.6390544 3001 1963.5 C 3001 1996.3609456 2948.8411792 2023 2884.5 2023 C 2820.1588208 2023 2768 1996.3609456 2768 1963.5 Z"/></g><g transform="translate(-150,-6) scale(1,1)"><path fill="none" stroke="#000000" d="M 2768 1963.5 C 2768 1930.6390544 2820.1588208 1904 2884.5 1904 C 2948.8411792 1904 3001 1930.6390544 3001 1963.5 C 3001 1996.3609456 2948.8411792 2023 2884.5 2023 C 2820.1588208 2023 2768 1996.3609456 2768 1963.5 Z" stroke-miterlimit="10"/></g><g transform="translate(-150,-6) scale(1,1)"><g><path fill="none" stroke="none"/><text fill="#000000" stroke="none" font-family="Arial" font-size="30px" font-style="normal" font-weight="bold" text-decoration="none" x="2811.3896484375" y="1979">View guide</text></g></g><g transform="translate(-150,-6) scale(1,1)"><path fill="#C0C0C0" stroke="none" d="M 455 1826.5 C 455 1793.6390544 538.4988848 1767 641.5 1767 C 744.5011152 1767 828 1793.6390544 828 1826.5 C 828 1859.3609456 744.5011152 1886 641.5 1886 C 538.4988848 1886 455 1859.3609456 455 1826.5 Z" opacity="0.2"/></g><g transform="translate(-150,-6) scale(1,1)"><path fill="#ffffff" stroke="none" d="M 448 1819.5 C 448 1786.6390544 531.4988848 1760 634.5 1760 C 737.5011152 1760 821 1786.6390544 821 1819.5 C 821 1852.3609456 737.5011152 1879 634.5 1879 C 531.4988848 1879 448 1852.3609456 448 1819.5 Z"/></g><g transform="translate(-150,-6) scale(1,1)"><path fill="none" stroke="#000000" d="M 448 1819.5 C 448 1786.6390544 531.4988848 1760 634.5 1760 C 737.5011152 1760 821 1786.6390544 821 1819.5 C 821 1852.3609456 737.5011152 1879 634.5 1879 C 531.4988848 1879 448 1852.3609456 448 1819.5 Z" stroke-miterlimit="10"/></g><g transform="translate(-150,-6) scale(1,1)"><g><path fill="none" stroke="none"/><text fill="#000000" stroke="none" font-family="Arial" font-size="30px" font-style="normal" font-weight="bold" text-decoration="none" x="514.4267578125" y="1835">Manage Inventory</text></g></g><g transform="translate(-150,-6) scale(1,1)"><path fill="none" stroke="#000000" d="M 272 568 L 617 1759" stroke-miterlimit="10"/></g><g transform="translate(-150,-6) scale(1,1)"><path fill="#C0C0C0" stroke="none" d="M 591 1390.5 C 591 1368.6847504 673.6034544 1351 775.5 1351 C 877.3965456 1351 960 1368.6847504 960 1390.5 C 960 1412.3152496 877.3965456 1430 775.5 1430 C 673.6034544 1430 591 1412.3152496 591 1390.5 Z" opacity="0.2"/></g><g transform="translate(-150,-6) scale(1,1)"><path fill="#ffffff" stroke="none" d="M 584 1383.5 C 584 1361.6847504 666.6034544 1344 768.5 1344 C 870.3965456 1344 953 1361.6847504 953 1383.5 C 953 1405.3152496 870.3965456 1423 768.5 1423 C 666.6034544 1423 584 1405.3152496 584 1383.5 Z"/></g><g transform="translate(-150,-6) scale(1,1)"><path fill="none" stroke="#000000" d="M 584 1383.5 C 584 1361.6847504 666.6034544 1344 768.5 1344 C 870.3965456 1344 953 1361.6847504 953 1383.5 C 953 1405.3152496 870.3965456 1423 768.5 1423 C 666.6034544 1423 584 1405.3152496 584 1383.5 Z" stroke-miterlimit="10"/></g><g transform="translate(-150,-6) scale(1,1)"><g><path fill="none" stroke="none"/><text fill="#000000" stroke="none" font-family="Arial" font-size="30px" font-style="normal" font-weight="bold" text-decoration="none" x="650.08935546875" y="1399">Create book code</text></g></g><g transform="translate(-150,-6) scale(1,1)"><path fill="#C0C0C0" stroke="none" d="M 983 1810.5 C 983 1790.8938896 1045.0085552 1775 1121.5 1775 C 1197.9914448 1775 1260 1790.8938896 1260 1810.5 C 1260 1830.1061104 1197.9914448 1846 1121.5 1846 C 1045.0085552 1846 983 1830.1061104 983 1810.5 Z" opacity="0.2"/></g><g transform="translate(-150,-6) scale(1,1)"><path fill="#ffffff" stroke="none" d="M 976 1803.5 C 976 1783.8938896 1038.0085552 1768 1114.5 1768 C 1190.9914448 1768 1253 1783.8938896 1253 1803.5 C 1253 1823.1061104 1190.9914448 1839 1114.5 1839 C 1038.0085552 1839 976 1823.1061104 976 1803.5 Z"/></g><g transform="translate(-150,-6) scale(1,1)"><path fill="none" stroke="#000000" d="M 976 1803.5 C 976 1783.8938896 1038.0085552 1768 1114.5 1768 C 1190.9914448 1768 1253 1783.8938896 1253 1803.5 C 1253 1823.1061104 1190.9914448 1839 1114.5 1839 C 1038.0085552 1839 976 1823.1061104 976 1803.5 Z" stroke-miterlimit="10"/></g><g transform="translate(-150,-6) scale(1,1)"><g><path fill="none" stroke="none"/><text fill="#000000" stroke="none" font-family="Arial" font-size="30px" font-style="normal" font-weight="bold" text-decoration="none" x="1026.9462890625" y="1819">Delete books</text></g></g><g transform="translate(-150,-6) scale(1,1)"><path fill="none" stroke="#000000" d="M 755 1424 L 652 1759" stroke-miterlimit="10"/></g><g transform="translate(-150,-6) scale(1,1)"><path fill="#FFFFFF" stroke="none" d="M 649.9260657527192 1737.0979727710435 L 652 1759 L 666.0205790053403 1742.0464350546852"/></g><g transform="translate(-150,-6) scale(1,1)"><path fill="none" stroke="#000000" d="M 649.9260657527192 1737.0979727710435 L 652 1759 L 666.0205790053403 1742.0464350546852 L 649.9260657527192 1737.0979727710435" stroke-miterlimit="10"/></g><g transform="translate(-150,-6) scale(1,1)"><path fill="none" stroke="#000000" d="M 975 1808 L 822 1813" stroke-miterlimit="10"/></g><g transform="translate(-150,-6) scale(1,1)"><path fill="#FFFFFF" stroke="none" d="M 842.0395199351698 1803.921583796282 L 822 1813 L 842.5894900979645 1820.7506707777986"/></g><g transform="translate(-150,-6) scale(1,1)"><path fill="none" stroke="#000000" d="M 842.0395199351698 1803.921583796282 L 822 1813 L 842.5894900979645 1820.7506707777986 L 842.0395199351698 1803.921583796282" stroke-miterlimit="10"/></g><g transform="translate(-150,-6) scale(1,1)"><path fill="#C0C0C0" stroke="none" d="M 935 583 C 935 547.6537728 1063.71812 519 1222.5 519 C 1381.28188 519 1510 547.6537728 1510 583 C 1510 618.3462272 1381.28188 647 1222.5 647 C 1063.71812 647 935 618.3462272 935 583 Z" opacity="0.2"/></g><g transform="translate(-150,-6) scale(1,1)"><path fill="#ffffff" stroke="none" d="M 928 576 C 928 540.6537728 1056.71812 512 1215.5 512 C 1374.28188 512 1503 540.6537728 1503 576 C 1503 611.3462272 1374.28188 640 1215.5 640 C 1056.71812 640 928 611.3462272 928 576 Z"/></g><g transform="translate(-150,-6) scale(1,1)"><path fill="none" stroke="#000000" d="M 928 576 C 928 540.6537728 1056.71812 512 1215.5 512 C 1374.28188 512 1503 540.6537728 1503 576 C 1503 611.3462272 1374.28188 640 1215.5 640 C 1056.71812 640 928 611.3462272 928 576 Z" stroke-miterlimit="10"/></g><g transform="translate(-150,-6) scale(1,1)"><g><path fill="none" stroke="none"/><text fill="#000000" stroke="none" font-family="Arial" font-size="30px" font-style="normal" font-weight="bold" text-decoration="none" x="1032.3359375" y="591.5">View new books acquisition</text></g></g><g transform="translate(-150,-6) scale(1,1)"><path fill="none" stroke="#000000" d="M 336 492 L 927 548" stroke-miterlimit="10"/></g><g transform="translate(-150,-6) scale(1,1)"><path fill="#C0C0C0" stroke="none" d="M 991 1262.5 C 991 1240.6847504 1053.9039856 1223 1131.5 1223 C 1209.0960144 1223 1272 1240.6847504 1272 1262.5 C 1272 1284.3152496 1209.0960144 1302 1131.5 1302 C 1053.9039856 1302 991 1284.3152496 991 1262.5 Z" opacity="0.2"/></g><g transform="translate(-150,-6) scale(1,1)"><path fill="#ffffff" stroke="none" d="M 984 1255.5 C 984 1233.6847504 1046.9039856 1216 1124.5 1216 C 1202.0960144 1216 1265 1233.6847504 1265 1255.5 C 1265 1277.3152496 1202.0960144 1295 1124.5 1295 C 1046.9039856 1295 984 1277.3152496 984 1255.5 Z"/></g><g transform="translate(-150,-6) scale(1,1)"><path fill="none" stroke="#000000" d="M 984 1255.5 C 984 1233.6847504 1046.9039856 1216 1124.5 1216 C 1202.0960144 1216 1265 1233.6847504 1265 1255.5 C 1265 1277.3152496 1202.0960144 1295 1124.5 1295 C 1046.9039856 1295 984 1277.3152496 984 1255.5 Z" stroke-miterlimit="10"/></g><g transform="translate(-150,-6) scale(1,1)"><g><path fill="none" stroke="none"/><text fill="#000000" stroke="none" font-family="Arial" font-size="30px" font-style="normal" font-weight="bold" text-decoration="none" x="1037.7958984375" y="1271">Import books</text></g></g><g transform="translate(-150,-6) scale(1,1)"><path fill="none" stroke="#000000" d="M 1088 1296 L 686 1759" stroke-miterlimit="10"/></g><g transform="translate(-150,-6) scale(1,1)"><path fill="#FFFFFF" stroke="none" d="M 692.9683814004852 1738.1327610677079 L 686 1759 L 705.6827558958411 1749.1720235885134"/></g><g transform="translate(-150,-6) scale(1,1)"><path fill="none" stroke="#000000" d="M 692.9683814004852 1738.1327610677079 L 686 1759 L 705.6827558958411 1749.1720235885134 L 692.9683814004852 1738.1327610677079" stroke-miterlimit="10"/></g><g transform="translate(-150,-6) scale(1,1)"><path fill="none" stroke="#000000" d="M 2645 1825 L 2017 2198" stroke-miterlimit="10"/></g><g transform="translate(-150,-6) scale(1,1)"><path fill="none" stroke="#000000" d="M 2767 1998 L 2017 2223" stroke-miterlimit="10"/></g><g transform="translate(-150,-6) scale(1,1)"><path fill="none" stroke="#000000" d="M 2897 1903 L 3163 633" stroke-miterlimit="10"/></g><g transform="translate(-150,-6) scale(1,1)"><path fill="none" stroke="#000000" d="M 2753 1719 L 3150 633" stroke-miterlimit="10"/></g><g transform="translate(-150,-6) scale(1,1)"><path fill="none" stroke="#000000" d="M 2269 146 L 2471 137" stroke-miterlimit="10" stroke-dasharray="3"/></g><g transform="translate(-150,-6) scale(1,1)"><path fill="none" stroke="#000000" d="M 2461.034764002397 141.65768950361377 L 2471 137 L 2460.6600302173038 133.2469978826372" stroke-miterlimit="10"/></g><g transform="translate(-150,-6) scale(1,1)"><g><path fill="none" stroke="none"/><text fill="#000000" stroke="none" font-family="Arial" font-size="30px" font-style="normal" font-weight="normal" text-decoration="none" x="2306.5" y="125.5">«extend»</text></g></g><g transform="translate(-150,-6) scale(1,1)"><path fill="#C0C0C0" stroke="none" d="M 1535 638.5 C 1535 607.8481936 1615.1410208 583 1714 583 C 1812.8589792 583 1893 607.8481936 1893 638.5 C 1893 669.1518064 1812.8589792 694 1714 694 C 1615.1410208 694 1535 669.1518064 1535 638.5 Z" opacity="0.2"/></g><g transform="translate(-150,-6) scale(1,1)"><path fill="#ffffff" stroke="none" d="M 1528 631.5 C 1528 600.8481936 1608.1410208 576 1707 576 C 1805.8589792 576 1886 600.8481936 1886 631.5 C 1886 662.1518064 1805.8589792 687 1707 687 C 1608.1410208 687 1528 662.1518064 1528 631.5 Z"/></g><g transform="translate(-150,-6) scale(1,1)"><path fill="none" stroke="#000000" d="M 1528 631.5 C 1528 600.8481936 1608.1410208 576 1707 576 C 1805.8589792 576 1886 600.8481936 1886 631.5 C 1886 662.1518064 1805.8589792 687 1707 687 C 1608.1410208 687 1528 662.1518064 1528 631.5 Z" stroke-miterlimit="10"/></g><g transform="translate(-150,-6) scale(1,1)"><g><path fill="none" stroke="none"/><text fill="#000000" stroke="none" font-family="Arial" font-size="30px" font-style="normal" font-weight="bold" text-decoration="none" x="1595.54736328125" y="647">View booking list</text></g></g><g transform="translate(-150,-6) scale(1,1)"><path fill="none" stroke="#000000" d="M 1887 621 L 3119 555" stroke-miterlimit="10"/></g><g transform="translate(-150,-6) scale(1,1)"><path fill="#C0C0C0" stroke="none" d="M 1399 785 C 1399 761.8040384 1462.3517008 743 1540.5 743 C 1618.6482992 743 1682 761.8040384 1682 785 C 1682 808.1959616 1618.6482992 827 1540.5 827 C 1462.3517008 827 1399 808.1959616 1399 785 Z" opacity="0.2"/></g><g transform="translate(-150,-6) scale(1,1)"><path fill="#ffffff" stroke="none" d="M 1392 778 C 1392 754.8040384 1455.3517008 736 1533.5 736 C 1611.6482992 736 1675 754.8040384 1675 778 C 1675 801.1959616 1611.6482992 820 1533.5 820 C 1455.3517008 820 1392 801.1959616 1392 778 Z"/></g><g transform="translate(-150,-6) scale(1,1)"><path fill="none" stroke="#000000" d="M 1392 778 C 1392 754.8040384 1455.3517008 736 1533.5 736 C 1611.6482992 736 1675 754.8040384 1675 778 C 1675 801.1959616 1611.6482992 820 1533.5 820 C 1455.3517008 820 1392 801.1959616 1392 778 Z" stroke-miterlimit="10"/></g><g transform="translate(-150,-6) scale(1,1)"><g><path fill="none" stroke="none"/><text fill="#000000" stroke="none" font-family="Arial" font-size="30px" font-style="normal" font-weight="bold" text-decoration="none" x="1444.5546875" y="793.5">View account</text></g></g><g transform="translate(-150,-6) scale(1,1)"><path fill="none" stroke="#000000" d="M 1676 758 L 3119 560" stroke-miterlimit="10"/></g><g transform="translate(-150,-6) scale(1,1)"><path fill="#C0C0C0" stroke="none" d="M 919 771 C 919 742.2811904 1004.7374608 719 1110.5 719 C 1216.2625392 719 1302 742.2811904 1302 771 C 1302 799.7188096 1216.2625392 823 1110.5 823 C 1004.7374608 823 919 799.7188096 919 771 Z" opacity="0.2"/></g><g transform="translate(-150,-6) scale(1,1)"><path fill="#ffffff" stroke="none" d="M 912 764 C 912 735.2811904 997.7374608 712 1103.5 712 C 1209.2625392 712 1295 735.2811904 1295 764 C 1295 792.7188096 1209.2625392 816 1103.5 816 C 997.7374608 816 912 792.7188096 912 764 Z"/></g><g transform="translate(-150,-6) scale(1,1)"><path fill="none" stroke="#000000" d="M 912 764 C 912 735.2811904 997.7374608 712 1103.5 712 C 1209.2625392 712 1295 735.2811904 1295 764 C 1295 792.7188096 1209.2625392 816 1103.5 816 C 997.7374608 816 912 792.7188096 912 764 Z" stroke-miterlimit="10"/></g><g transform="translate(-150,-6) scale(1,1)"><g><path fill="none" stroke="none"/><text fill="#000000" stroke="none" font-family="Arial" font-size="30px" font-style="normal" font-weight="bold" text-decoration="none" x="980.9365234375" y="779.5">Set new password</text></g></g><g transform="translate(-150,-6) scale(1,1)"><path fill="none" stroke="#000000" d="M 336 512 L 942 711" stroke-miterlimit="10"/></g><g transform="translate(-150,-6) scale(1,1)"><path fill="#C0C0C0" stroke="none" d="M 2071 1605 C 2071 1584.0131776 2152.9318816 1567 2254 1567 C 2355.0681184 1567 2437 1584.0131776 2437 1605 C 2437 1625.9868224 2355.0681184 1643 2254 1643 C 2152.9318816 1643 2071 1625.9868224 2071 1605 Z" opacity="0.2"/></g><g transform="translate(-150,-6) scale(1,1)"><path fill="#ffffff" stroke="none" d="M 2064 1598 C 2064 1577.0131776 2145.9318816 1560 2247 1560 C 2348.0681184 1560 2430 1577.0131776 2430 1598 C 2430 1618.9868224 2348.0681184 1636 2247 1636 C 2145.9318816 1636 2064 1618.9868224 2064 1598 Z"/></g><g transform="translate(-150,-6) scale(1,1)"><path fill="none" stroke="#000000" d="M 2064 1598 C 2064 1577.0131776 2145.9318816 1560 2247 1560 C 2348.0681184 1560 2430 1577.0131776 2430 1598 C 2430 1618.9868224 2348.0681184 1636 2247 1636 C 2145.9318816 1636 2064 1618.9868224 2064 1598 Z" stroke-miterlimit="10"/></g><g transform="translate(-150,-6) scale(1,1)"><g><path fill="none" stroke="none"/><text fill="#000000" stroke="none" font-family="Arial" font-size="30px" font-style="normal" font-weight="bold" text-decoration="none" x="2130.56689453125" y="1613.5">View new arrivals</text></g></g><g transform="translate(-150,-6) scale(1,1)"><path fill="#C0C0C0" stroke="none" d="M 1311 1127 C 1311 1100.4903296 1397.6328912 1079 1504.5 1079 C 1611.3671088 1079 1698 1100.4903296 1698 1127 C 1698 1153.5096704 1611.3671088 1175 1504.5 1175 C 1397.6328912 1175 1311 1153.5096704 1311 1127 Z" opacity="0.2"/></g><g transform="translate(-150,-6) scale(1,1)"><path fill="#ffffff" stroke="none" d="M 1304 1120 C 1304 1093.4903296 1390.6328912 1072 1497.5 1072 C 1604.3671088 1072 1691 1093.4903296 1691 1120 C 1691 1146.5096704 1604.3671088 1168 1497.5 1168 C 1390.6328912 1168 1304 1146.5096704 1304 1120 Z"/></g><g transform="translate(-150,-6) scale(1,1)"><path fill="none" stroke="#000000" d="M 1304 1120 C 1304 1093.4903296 1390.6328912 1072 1497.5 1072 C 1604.3671088 1072 1691 1093.4903296 1691 1120 C 1691 1146.5096704 1604.3671088 1168 1497.5 1168 C 1390.6328912 1168 1304 1146.5096704 1304 1120 Z" stroke-miterlimit="10"/></g><g transform="translate(-150,-6) scale(1,1)"><g><path fill="none" stroke="none"/><text fill="#000000" stroke="none" font-family="Arial" font-size="30px" font-style="normal" font-weight="bold" text-decoration="none" x="1376.05712890625" y="1135.5">View borrowed list</text></g></g><g transform="translate(-150,-6) scale(1,1)"><path fill="none" stroke="#000000" d="M 1642 1071 L 3119 573" stroke-miterlimit="10"/></g><g transform="translate(-150,-6) scale(1,1)"><path fill="#C0C0C0" stroke="none" d="M 727 989 C 727 959.1766208 816.9907552 935 928 935 C 1039.0092448 935 1129 959.1766208 1129 989 C 1129 1018.8233792 1039.0092448 1043 928 1043 C 816.9907552 1043 727 1018.8233792 727 989 Z" opacity="0.2"/></g><g transform="translate(-150,-6) scale(1,1)"><path fill="#ffffff" stroke="none" d="M 720 982 C 720 952.1766208 809.9907552 928 921 928 C 1032.0092448 928 1122 952.1766208 1122 982 C 1122 1011.8233792 1032.0092448 1036 921 1036 C 809.9907552 1036 720 1011.8233792 720 982 Z"/></g><g transform="translate(-150,-6) scale(1,1)"><path fill="none" stroke="#000000" d="M 720 982 C 720 952.1766208 809.9907552 928 921 928 C 1032.0092448 928 1122 952.1766208 1122 982 C 1122 1011.8233792 1032.0092448 1036 921 1036 C 809.9907552 1036 720 1011.8233792 720 982 Z" stroke-miterlimit="10"/></g><g transform="translate(-150,-6) scale(1,1)"><g><path fill="none" stroke="none"/><text fill="#000000" stroke="none" font-family="Arial" font-size="30px" font-style="normal" font-weight="bold" text-decoration="none" x="791.74951171875" y="997.5">Back to home page</text></g></g><g transform="translate(-150,-6) scale(1,1)"><path fill="none" stroke="#000000" d="M 2228 1637 L 1975 2159" stroke-miterlimit="10"/></g><g transform="translate(-150,-6) scale(1,1)"><path fill="none" stroke="#000000" d="M 2282 1559 L 3119 620" stroke-miterlimit="10"/></g><g transform="translate(-150,-6) scale(1,1)"><path fill="none" stroke="#000000" d="M 336 549 L 847 927" stroke-miterlimit="10"/></g><g transform="translate(-150,-6) scale(1,1)"><path fill="none" stroke="#000000" d="M 1123 944 L 3119 564" stroke-miterlimit="10"/></g><g transform="translate(-150,-6) scale(1,1)"><path fill="#C0C0C0" stroke="none" d="M 2199 1839 C 2199 1812.4903296 2270.1867168 1791 2358 1791 C 2445.8132832 1791 2517 1812.4903296 2517 1839 C 2517 1865.5096704 2445.8132832 1887 2358 1887 C 2270.1867168 1887 2199 1865.5096704 2199 1839 Z" opacity="0.2"/></g><g transform="translate(-150,-6) scale(1,1)"><path fill="#ffffff" stroke="none" d="M 2192 1832 C 2192 1805.4903296 2263.1867168 1784 2351 1784 C 2438.8132832 1784 2510 1805.4903296 2510 1832 C 2510 1858.5096704 2438.8132832 1880 2351 1880 C 2263.1867168 1880 2192 1858.5096704 2192 1832 Z"/></g><g transform="translate(-150,-6) scale(1,1)"><path fill="none" stroke="#000000" d="M 2192 1832 C 2192 1805.4903296 2263.1867168 1784 2351 1784 C 2438.8132832 1784 2510 1805.4903296 2510 1832 C 2510 1858.5096704 2438.8132832 1880 2351 1880 C 2263.1867168 1880 2192 1858.5096704 2192 1832 Z" stroke-miterlimit="10"/></g><g transform="translate(-150,-6) scale(1,1)"><g><path fill="none" stroke="none"/><text fill="#000000" stroke="none" font-family="Arial" font-size="30px" font-style="normal" font-weight="bold" text-decoration="none" x="2249.53759765625" y="1847.5">View catalogue</text></g></g><g transform="translate(-150,-6) scale(1,1)"><path fill="none" stroke="#000000" d="M 2302 1881 L 2017 2164" stroke-miterlimit="10"/></g><g transform="translate(-150,-6) scale(1,1)"><path fill="none" stroke="#000000" d="M 2383 1783 L 3128 633" stroke-miterlimit="10"/></g><g transform="translate(-150,-6) scale(1,1)"><path fill="none" stroke="#000000" d="M 1831 1743 L 2135 1637" stroke-miterlimit="10" stroke-dasharray="3"/></g><g transform="translate(-150,-6) scale(1,1)"><path fill="none" stroke="#000000" d="M 2126.7898998094697 1644.3208097135123 L 2135 1637 L 2124.017988288854 1636.371176673256" stroke-miterlimit="10"/></g><g transform="translate(-150,-6) scale(1,1)"><g><path fill="none" stroke="none"/><text fill="#000000" stroke="none" font-family="Arial" font-size="30px" font-style="normal" font-weight="normal" text-decoration="none" x="1911.5" y="1675.5">«extend»</text></g></g><g transform="translate(-150,-6) scale(1,1)"><path fill="none" stroke="#000000" d="M 1915 1796 L 2191 1819" stroke-miterlimit="10" stroke-dasharray="3"/></g><g transform="translate(-150,-6) scale(1,1)"><path fill="none" stroke="#000000" d="M 2180.5228480562114 1822.3510128538653 L 2191 1819 L 2181.222010900214 1813.961058725837" stroke-miterlimit="10"/></g><g transform="translate(-150,-6) scale(1,1)"><g><path fill="none" stroke="none"/><text fill="#000000" stroke="none" font-family="Arial" font-size="30px" font-style="normal" font-weight="normal" text-decoration="none" x="1992.5" y="1792.5">«extend»</text></g></g></g></svg>